<svg xmlns="http://www.w3.org/2000/svg" width="63.91" height="63" viewBox="0 0 63.91 63">
  <metadata><?xpacket begin="﻿" id="W5M0MpCehiHzreSzNTczkc9d"?>
<x:xmpmeta xmlns:x="adobe:ns:meta/" x:xmptk="Adobe XMP Core 5.6-c140 79.160451, 2017/05/06-01:08:21        ">
   <rdf:RDF xmlns:rdf="http://www.w3.org/1999/02/22-rdf-syntax-ns#">
      <rdf:Description rdf:about=""/>
   </rdf:RDF>
</x:xmpmeta>
                                                                                                    
                                                                                                    
                                                                                                    
                                                                                                    
                                                                                                    
                                                                                                    
                                                                                                    
                                                                                                    
                                                                                                    
                                                                                                    
                                                                                                    
                                                                                                    
                                                                                                    
                                                                                                    
                                                                                                    
                                                                                                    
                                                                                                    
                                                                                                    
                                                                                                    
                                                                                                    
                           
<?xpacket end="w"?></metadata>
<defs>
    <style>
      .cls-1 {
        fill: #1275b9;
      }

      .cls-1, .cls-2 {
        fill-rule: evenodd;
      }

      .cls-2 {
        fill: #fff;
      }
    </style>
  </defs>
  <path class="cls-1" d="M1094.76,56a31.5,31.5,0,1,1-31.94,31.5A31.725,31.725,0,0,1,1094.76,56Z" transform="translate(-1062.81 -56)"/>
  <path id="Dashboard" class="cls-2" d="M1098.7,84.654s-0.98,5.7-2.02,6.94a2.919,2.919,0,0,1-4.13.332,2.965,2.965,0,0,1-.33-4.151C1093.27,86.538,1098.7,84.654,1098.7,84.654Zm6.2,12.509h-20.1a0.993,0.993,0,0,1-.79-0.393,13.521,13.521,0,1,1,21.68,0A0.993,0.993,0,0,1,1104.9,97.164Zm-19.59-2.017h19.08a11.79,11.79,0,0,0,1.98-6.586,11.516,11.516,0,1,0-23.03.026A11.737,11.737,0,0,0,1085.31,95.147Zm1.61-6.346a1.007,1.007,0,0,1-1.01-1.008,8.941,8.941,0,1,1,17.88-.028,1,1,0,1,1-2,0,6.936,6.936,0,1,0-13.87.028A1,1,0,0,1,1086.92,88.8Z" transform="translate(-1062.81 -56)"/>
</svg>
