<svg width="65" height="48" viewBox="0 0 65 48" fill="none" xmlns="http://www.w3.org/2000/svg">
<path fill-rule="evenodd" clip-rule="evenodd" d="M2.02325 34.755C1.97625 34.755 1.92327 34.755 1.87927 34.749C1.35034 34.7111 0.858098 34.4647 0.510803 34.064C0.163508 33.6632 -0.0103982 33.1409 0.0272827 32.612C0.0882827 31.747 3.14027 12.78 3.65027 9.724C3.69927 9.431 3.73831 9.11798 3.78131 8.78998C4.17431 5.71798 4.90829 0.000976562 14.1233 0.000976562C14.6537 0.000976562 15.1624 0.211689 15.5375 0.586761C15.9125 0.961834 16.1233 1.47054 16.1233 2.00098C16.1233 2.53141 15.9125 3.04012 15.5375 3.41519C15.1624 3.79026 14.6537 4.00098 14.1233 4.00098C8.42329 4.00098 8.12329 6.33899 7.74829 9.30099C7.69929 9.67999 7.64828 10.043 7.59528 10.381C7.19528 12.768 4.43326 27.057 4.01526 32.899C3.9789 33.4027 3.75334 33.874 3.38385 34.2183C3.01436 34.5625 2.52827 34.7543 2.02325 34.755V34.755ZM62.2033 34.88C61.676 34.8845 61.1647 34.6995 60.7623 34.3587C60.36 34.0179 60.0935 33.5439 60.0113 33.023C59.5933 27.181 56.8283 12.765 56.4313 10.38C56.3753 10.042 56.3313 9.67999 56.2793 9.29999C55.9003 6.33899 55.5993 4 49.9043 4C49.3739 4 48.8651 3.78929 48.4901 3.41422C48.115 3.03914 47.9043 2.53043 47.9043 2C47.9043 1.46957 48.115 0.960858 48.4901 0.585785C48.8651 0.210712 49.3739 0 49.9043 0C59.1193 0 59.8533 5.717 60.2463 8.789C60.2893 9.117 60.3283 9.42999 60.3773 9.72299C60.8863 12.779 64.1383 31.871 64.1993 32.737C64.2367 33.2658 64.0627 33.7878 63.7154 34.1883C63.3681 34.5888 62.876 34.8351 62.3473 34.873C62.2993 34.878 62.2503 34.88 62.2033 34.88V34.88ZM14.1973 24.08C16.8386 24.08 19.3717 25.1292 21.2394 26.9969C23.1071 28.8646 24.1563 31.3977 24.1563 34.039C24.1563 36.6803 23.1071 39.2134 21.2394 41.0811C19.3717 42.9487 16.8386 43.998 14.1973 43.998C12.8726 44.0245 11.556 43.7865 10.3245 43.298C9.093 42.8094 7.97133 42.0801 7.02515 41.1527C6.07896 40.2253 5.32729 39.1185 4.81415 37.897C4.30101 36.6755 4.03668 35.3639 4.03668 34.039C4.03668 32.7141 4.30101 31.4025 4.81415 30.181C5.32729 28.9595 6.07896 27.8527 7.02515 26.9253C7.97133 25.9979 9.093 25.2685 10.3245 24.78C11.556 24.2914 12.8726 24.0534 14.1973 24.08ZM14.1973 20.08C12.3443 20.0486 10.5036 20.3865 8.78253 21.0739C7.06147 21.7613 5.49448 22.7845 4.17297 24.0839C2.85147 25.3832 1.80184 26.9326 1.08539 28.6418C0.368933 30.351 0 32.1857 0 34.039C0 35.8923 0.368933 37.727 1.08539 39.4362C1.80184 41.1453 2.85147 42.6948 4.17297 43.9941C5.49448 45.2934 7.06147 46.3166 8.78253 47.004C10.5036 47.6915 12.3443 48.0294 14.1973 47.998C17.8994 47.998 21.45 46.5273 24.0678 43.9095C26.6856 41.2917 28.1563 37.7412 28.1563 34.039C28.1563 30.3368 26.6856 26.7863 24.0678 24.1685C21.45 21.5507 17.8994 20.08 14.1973 20.08V20.08ZM50.1973 24.08C52.8386 24.08 55.3717 25.1292 57.2394 26.9969C59.1071 28.8646 60.1563 31.3977 60.1563 34.039C60.1563 36.6803 59.1071 39.2134 57.2394 41.0811C55.3717 42.9487 52.8386 43.998 50.1973 43.998C48.8726 44.0245 47.556 43.7865 46.3245 43.298C45.093 42.8094 43.9713 42.0801 43.0251 41.1527C42.079 40.2253 41.3273 39.1185 40.8141 37.897C40.301 36.6755 40.0367 35.3639 40.0367 34.039C40.0367 32.7141 40.301 31.4025 40.8141 30.181C41.3273 28.9595 42.079 27.8527 43.0251 26.9253C43.9713 25.9979 45.093 25.2685 46.3245 24.78C47.556 24.2914 48.8726 24.0534 50.1973 24.08V24.08ZM50.1973 20.08C48.3443 20.0486 46.5036 20.3865 44.7825 21.0739C43.0615 21.7613 41.4945 22.7845 40.173 24.0839C38.8515 25.3832 37.8018 26.9326 37.0854 28.6418C36.3689 30.351 36 32.1857 36 34.039C36 35.8923 36.3689 37.727 37.0854 39.4362C37.8018 41.1453 38.8515 42.6948 40.173 43.9941C41.4945 45.2934 43.0615 46.3166 44.7825 47.004C46.5036 47.6915 48.3443 48.0294 50.1973 47.998C53.8994 47.998 57.45 46.5273 60.0678 43.9095C62.6856 41.2917 64.1563 37.7412 64.1563 34.039C64.1563 30.3368 62.6856 26.7863 60.0678 24.1685C57.45 21.5507 53.8994 20.08 50.1973 20.08V20.08ZM26.9863 31.018L24.8063 27.664C27.0246 26.411 29.5473 25.7986 32.0933 25.895C34.5743 25.8269 37.0348 26.3622 39.2633 27.455L37.2983 30.94C35.6637 30.2053 33.8847 29.8481 32.0933 29.895C30.3222 29.8274 28.5634 30.2144 26.9843 31.019L26.9863 31.018Z" fill="black"/>
</svg>
