<svg width="186" height="32" viewBox="0 0 186 32" fill="none" xmlns="http://www.w3.org/2000/svg">
<rect width="30" height="30" rx="7" fill="white"/>
<path d="M3.00077 1.02734C3.0025 1.05853 3.00719 1.09 3.01505 1.12142L7.51374 19.1162L9.98737 30.0001H6.86275C3.13726 30.0001 0 26.8786 0 22.9515V6.84042C0 4.44042 1.1603 2.33835 3.00077 1.02734Z" fill="#FECC30"/>
<path d="M23.3425 0H6.90094C5.6806 0 4.84016 0.151963 3.91602 0.720815C3.94756 0.767694 3.97164 0.820758 3.98613 0.878741L8.24559 17.9166L14.6214 10.1746L23.3425 0Z" fill="#FC3B36"/>
<path d="M30.0004 17.44L15.7969 10.3382L24.3801 0.324435C24.4341 0.261433 24.4697 0.18886 24.4874 0.113281C27.3811 0.907218 30.0004 3.67887 30.0004 6.89903V17.44Z" fill="#35B74B"/>
<path d="M11.0011 29.9996C11.0011 29.9631 10.997 29.926 10.9886 29.8888L8.54297 19.1281L15.1337 11.125L29.7774 18.4468C29.8493 18.4828 29.9257 18.4998 30.0009 18.4997V22.9251C30.0009 26.8666 26.8753 29.9996 23.1637 29.9996H11.0011Z" fill="#147FFB"/>
<path fill-rule="evenodd" clip-rule="evenodd" d="M100.424 8.8752C99.5349 8.3184 98.4718 8.04 97.2347 8.04C95.9009 8.04 94.7073 8.3712 93.6539 9.0336C92.6004 9.696 91.7692 10.6464 91.1603 11.8848C90.5514 13.1232 90.247 14.5872 90.247 16.2768C90.247 17.9472 90.5514 19.4064 91.1603 20.6544C91.7692 21.9024 92.6004 22.8576 93.6539 23.52C94.7073 24.1824 95.9009 24.5136 97.2347 24.5136C98.4718 24.5136 99.5349 24.2352 100.424 23.6784C101.313 23.1216 101.961 22.3632 102.367 21.4032V24.312H107.325V3H102.367V11.1504C101.961 10.1904 101.313 9.432 100.424 8.8752ZM46.9581 24.312V17.1696H50.0315C51.6359 17.1696 52.9986 16.8864 54.1197 16.32C55.2409 15.7536 56.0865 14.976 56.6568 13.9872C57.227 12.9984 57.5121 11.8704 57.5121 10.6032C57.5121 8.56799 56.8742 6.95041 55.5985 5.7504C54.3227 4.55039 52.4671 3.9504 50.0315 3.9504H42V24.312H46.9581ZM52.467 10.6032C52.467 12.3504 51.4716 13.224 49.4806 13.224H46.9581V7.9248H49.4806C51.4716 7.9248 52.467 8.81759 52.467 10.6032ZM64.9057 11.2656C65.5243 10.2864 66.3216 9.5088 67.2978 8.9328C68.2739 8.3568 69.3322 8.0688 70.4727 8.0688V13.3392H69.052C67.7375 13.3392 66.7179 13.6176 65.993 14.1744C65.2682 14.7312 64.9057 15.672 64.9057 16.9968V24.312H59.9477V8.2416H64.9057V11.2656ZM84.4336 9.0336C83.1675 8.3712 81.7323 8.04 80.1279 8.04C78.5235 8.04 77.0835 8.3712 75.8077 9.0336C74.5319 9.696 73.5316 10.6512 72.8068 11.8992C72.0819 13.1472 71.7195 14.6064 71.7195 16.2768C71.7195 17.9472 72.0819 19.4064 72.8068 20.6544C73.5316 21.9024 74.5319 22.8576 75.8077 23.52C77.0835 24.1824 78.5235 24.5136 80.1279 24.5136C81.7323 24.5136 83.1675 24.1824 84.4336 23.52C85.6997 22.8576 86.6952 21.9024 87.42 20.6544C88.1449 19.4064 88.5073 17.9472 88.5073 16.2768C88.5073 14.6064 88.1449 13.1472 87.42 11.8992C86.6952 10.6512 85.6997 9.696 84.4336 9.0336ZM80.1279 12.3024C79.1807 12.3024 78.3834 12.6432 77.7358 13.3248C77.0883 14.0064 76.7645 14.9904 76.7645 16.2768C76.7645 17.5632 77.0883 18.5424 77.7358 19.2144C78.3834 19.8864 79.1807 20.2224 80.1279 20.2224C81.0751 20.2224 81.8676 19.8864 82.5054 19.2144C83.1433 18.5424 83.4623 17.5632 83.4623 16.2768C83.4623 14.9904 83.1433 14.0064 82.5054 13.3248C81.8676 12.6432 81.0751 12.3024 80.1279 12.3024ZM98.8294 12.36C97.7663 12.36 96.9109 12.7056 96.2634 13.3968C95.6158 14.088 95.2921 15.048 95.2921 16.2768C95.2921 17.5056 95.6158 18.4656 96.2634 19.1568C96.9109 19.848 97.7663 20.1936 98.8294 20.1936C99.8732 20.1936 100.729 19.8384 101.395 19.128C102.062 18.4176 102.396 17.4672 102.396 16.2768C102.396 15.0672 102.062 14.112 101.395 13.4112C100.729 12.7104 99.8732 12.36 98.8294 12.36ZM121.851 24.312H126.838V8.2416H121.851V16.7664C121.851 17.9376 121.561 18.84 120.981 19.4736C120.401 20.1072 119.609 20.424 118.604 20.424C117.637 20.424 116.869 20.1216 116.299 19.5168C115.728 18.912 115.443 18.0624 115.443 16.968V8.2416H110.514V17.5728C110.514 19.7232 111.06 21.4128 112.152 22.6416C113.245 23.8704 114.718 24.4848 116.574 24.4848C117.792 24.4848 118.86 24.2064 119.778 23.6496C120.696 23.0928 121.387 22.344 121.851 21.4032V24.312ZM137.566 8.04C139.654 8.04 141.403 8.61119 142.814 9.7536C144.225 10.896 145.114 12.4656 145.482 14.4624H140.234C140.079 13.7712 139.76 13.2336 139.277 12.8496C138.794 12.4656 138.185 12.2736 137.45 12.2736C136.58 12.2736 135.865 12.6144 135.305 13.296C134.744 13.9776 134.464 14.9712 134.464 16.2768C134.464 17.5824 134.744 18.576 135.305 19.2576C135.865 19.9392 136.58 20.28 137.45 20.28C138.185 20.28 138.794 20.088 139.277 19.704C139.76 19.32 140.079 18.7824 140.234 18.0912H145.482C145.114 20.088 144.225 21.6576 142.814 22.8C141.403 23.9424 139.654 24.5136 137.566 24.5136C135.981 24.5136 134.575 24.1824 133.347 23.52C132.12 22.8576 131.158 21.9024 130.463 20.6544C129.767 19.4064 129.419 17.9472 129.419 16.2768C129.419 14.5872 129.762 13.1232 130.448 11.8848C131.134 10.6464 132.096 9.696 133.333 9.0336C134.57 8.3712 135.981 8.04 137.566 8.04ZM157.225 24.312V20.0784H155.659C155.04 20.0784 154.601 19.9536 154.34 19.704C154.079 19.4544 153.948 19.0128 153.948 18.3792V12.3888H157.196V8.2416H153.948V4.296H148.99V8.2416H146.815V12.3888H148.99V18.2928C148.99 20.4432 149.517 21.984 150.57 22.9152C151.624 23.8464 153.098 24.312 154.992 24.312H157.225ZM164.966 3V24.312H160.008V3H164.966ZM176.013 18.0912L172.128 8.2416H166.59L173.375 23.7072L169.576 31.9728H175.027L185.117 8.2416H179.637L176.013 18.0912Z" fill="#173A56"/>
</svg>
