<svg width="65" height="65" viewBox="0 0 65 65" fill="none" xmlns="http://www.w3.org/2000/svg">
<path fill-rule="evenodd" clip-rule="evenodd" d="M32.0183 64.254C25.6267 64.2552 19.4569 61.9111 14.6786 57.6661C9.90032 53.421 6.84583 47.5702 6.09427 41.223C6.06347 40.9621 6.08438 40.6977 6.15576 40.4449C6.22714 40.1921 6.34759 39.9559 6.51028 39.7496C6.67297 39.5434 6.87471 39.3712 7.10394 39.2429C7.33317 39.1146 7.58541 39.0328 7.84628 39.002C8.10715 38.9712 8.37153 38.9921 8.62433 39.0635C8.87712 39.1349 9.1134 39.2553 9.31964 39.418C9.52588 39.5807 9.69804 39.7824 9.82632 40.0117C9.9546 40.2409 10.0365 40.4931 10.0673 40.754C10.7101 46.1209 13.2967 51.0665 17.3383 54.6558C21.3799 58.2451 26.5964 60.2295 32.0018 60.2338C37.4071 60.2381 42.6267 58.2621 46.674 54.6792C50.7214 51.0963 53.3159 46.1549 53.9673 40.789C53.9983 40.5281 54.0805 40.2759 54.209 40.0468C54.3375 39.8177 54.5099 39.6161 54.7163 39.4536C54.9228 39.2911 55.1592 39.1708 55.4121 39.0997C55.665 39.0285 55.9294 39.0079 56.1903 39.039C56.4511 39.0701 56.7033 39.1522 56.9325 39.2807C57.1616 39.4092 57.3632 39.5816 57.5257 39.788C57.6882 39.9944 57.8084 40.2309 57.8796 40.4838C57.9507 40.7367 57.9713 41.0011 57.9403 41.262C57.1785 47.6012 54.12 53.4415 49.3433 57.6782C44.5667 61.9149 38.4031 64.2543 32.0183 64.254V64.254ZM32.0183 63.746C31.4878 63.746 30.9791 63.5353 30.6041 63.1602C30.229 62.7851 30.0183 62.2764 30.0183 61.746V16.621C30.0183 16.0906 30.229 15.5819 30.6041 15.2068C30.9791 14.8317 31.4878 14.621 32.0183 14.621C32.5487 14.621 33.0574 14.8317 33.4325 15.2068C33.8076 15.5819 34.0183 16.0906 34.0183 16.621V61.746C34.0183 62.2764 33.8076 62.7851 33.4325 63.1602C33.0574 63.5353 32.5487 63.746 32.0183 63.746ZM32.0513 4C32.8548 4.0002 33.6403 4.23864 34.3083 4.68521C34.9763 5.13178 35.4969 5.76642 35.8043 6.50885C36.1117 7.25128 36.192 8.06818 36.0351 8.85626C35.8782 9.64434 35.4912 10.3682 34.9229 10.9363C34.3546 11.5044 33.6307 11.8913 32.8426 12.048C32.0544 12.2047 31.2376 12.1242 30.4952 11.8166C29.7528 11.5091 29.1183 10.9883 28.6719 10.3202C28.2255 9.65202 27.9873 8.86653 27.9873 8.06299C27.9883 6.98574 28.4167 5.95292 29.1785 5.19119C29.9402 4.42946 30.973 4.00106 32.0503 4H32.0513ZM32.0503 6.20412e-08C30.4555 -0.000197725 28.8965 0.472514 27.5704 1.35837C26.2443 2.24422 25.2107 3.50341 24.6003 4.97672C23.9899 6.45002 23.8301 8.07124 24.1411 9.63538C24.4521 11.1995 25.2199 12.6363 26.3475 13.764C27.4751 14.8918 28.9118 15.6598 30.4759 15.971C32.04 16.2822 33.6612 16.1226 35.1346 15.5123C36.608 14.9021 37.8673 13.8686 38.7534 12.5427C39.6394 11.2167 40.1123 9.65774 40.1123 8.06299C40.1124 7.00419 39.904 5.95572 39.4989 4.97748C39.0938 3.99924 38.5 3.11037 37.7513 2.36163C37.0027 1.6129 36.1139 1.01899 35.1357 0.61377C34.1575 0.208554 33.1091 5.38961e-08 32.0503 6.20412e-08V6.20412e-08ZM56.4183 39.226L48.5183 44.6C48.3692 44.7175 48.1977 44.8035 48.0143 44.8527C47.8309 44.9019 47.6395 44.9133 47.4515 44.8862C47.2636 44.859 47.0832 44.794 46.9212 44.6949C46.7592 44.5959 46.6191 44.4649 46.5093 44.31L46.0993 43.859C45.9055 43.5172 45.8493 43.1142 45.9422 42.7324C46.0351 42.3506 46.2701 42.0186 46.5993 41.804L55.6993 35.659C55.7123 35.65 55.7183 35.639 55.7303 35.632L56.3463 35.232C56.5058 35.1288 56.6846 35.0591 56.8719 35.0272C57.0592 34.9953 57.251 35.0019 57.4357 35.0465C57.6204 35.0911 57.7941 35.1729 57.9461 35.2868C58.0982 35.4007 58.2255 35.5443 58.3203 35.709L58.6883 36.342C58.6953 36.354 58.6883 36.368 58.7013 36.38L63.8433 45.836C64.0374 46.1779 64.0937 46.581 64.0008 46.9631C63.9079 47.3451 63.6728 47.6774 63.3433 47.892L62.7733 48.106C62.6048 48.1941 62.4201 48.2469 62.2306 48.2613C62.041 48.2757 61.8505 48.2512 61.6706 48.1896C61.4908 48.1279 61.3254 48.0303 61.1845 47.9026C61.0437 47.775 60.9303 47.6199 60.8513 47.447L56.4183 39.226ZM7.62628 39.226L15.5263 44.6C15.6754 44.7175 15.8469 44.8035 16.0302 44.8527C16.2136 44.9019 16.4051 44.9133 16.593 44.8862C16.7809 44.859 16.9614 44.794 17.1234 44.6949C17.2854 44.5959 17.4255 44.4649 17.5353 44.31L17.9453 43.859C18.1391 43.5172 18.1953 43.1142 18.1024 42.7324C18.0095 42.3506 17.7745 42.0186 17.4453 41.804L8.34527 35.659C8.33227 35.65 8.32627 35.639 8.31427 35.632L7.69827 35.232C7.53876 35.1288 7.35993 35.0591 7.17264 35.0272C6.98534 34.9953 6.7935 35.0019 6.60882 35.0465C6.42415 35.0911 6.25049 35.1729 6.09842 35.2868C5.94635 35.4007 5.81904 35.5443 5.72427 35.709L5.35629 36.342C5.34929 36.354 5.35029 36.368 5.34329 36.38L0.201291 45.836C0.00717312 46.1779 -0.0491848 46.581 0.0437287 46.9631C0.136642 47.3451 0.371827 47.6774 0.701291 47.892L1.27227 48.106C1.44076 48.1941 1.62543 48.2469 1.815 48.2613C2.00457 48.2757 2.1951 48.2512 2.37494 48.1896C2.55478 48.1279 2.72015 48.0303 2.86102 47.9026C3.00189 47.775 3.11528 47.6199 3.19427 47.447L7.62628 39.226ZM22.0183 16.063H42.0183C42.5487 16.063 43.0574 16.2737 43.4325 16.6488C43.8076 17.0238 44.0183 17.5326 44.0183 18.063C44.0183 18.5934 43.8076 19.1021 43.4325 19.4772C43.0574 19.8523 42.5487 20.063 42.0183 20.063H22.0183C21.4878 20.063 20.9791 19.8523 20.6041 19.4772C20.229 19.1021 20.0183 18.5934 20.0183 18.063C20.0183 17.5326 20.229 17.0238 20.6041 16.6488C20.9791 16.2737 21.4878 16.063 22.0183 16.063Z" fill="black"/>
</svg>
