<svg width="64" height="65" viewBox="0 0 64 65" fill="none" xmlns="http://www.w3.org/2000/svg">
<path fill-rule="evenodd" clip-rule="evenodd" d="M51.5707 4L59.8866 19.9L31.7637 58.188L4.08965 19.61L12.3897 4H51.5677H51.5707ZM51.9877 0H11.9877C11.391 0.0332112 10.8114 0.211379 10.2991 0.519104C9.7868 0.826829 9.35725 1.25482 9.04766 1.76599L0.328664 18.158C0.078552 18.6968 -0.0317809 19.2899 0.00789385 19.8826C0.0475686 20.4752 0.235962 21.0483 0.555654 21.549L30.5557 63.371C30.6754 63.5757 30.8463 63.7456 31.0516 63.8642C31.2569 63.9828 31.4896 64.0459 31.7267 64.0473C31.9638 64.0487 32.1971 63.9884 32.4039 63.8723C32.6106 63.7561 32.7835 63.5882 32.9056 63.385L63.3996 21.869C63.724 21.3724 63.9175 20.8018 63.9623 20.2104C64.007 19.6189 63.9015 19.0258 63.6556 18.486L54.9126 1.771C54.6073 1.25849 54.1807 0.828908 53.6703 0.520081C53.1599 0.211253 52.5813 0.0326597 51.9856 0V0H51.9877ZM60.2377 22H2.23766V18H60.2377V22ZM29.8376 59.631L11.0877 3.13098L14.8877 1.86899L33.6377 58.369L29.8376 59.631ZM33.7776 59.207L29.9997 57.887L50.0997 0.339996L53.8766 1.66L33.7776 59.207ZM20.9607 21.143L17.6796 18.858L30.2126 0.858002C30.3916 0.600523 30.6285 0.388696 30.9043 0.239655C31.1802 0.0906131 31.4872 0.00853054 31.8006 0C32.1131 0.000582343 32.4215 0.0702559 32.7038 0.204071C32.9862 0.337886 33.2354 0.532515 33.4336 0.773987L46.9007 18.112L43.7407 20.565L31.9407 5.37299L20.9607 21.143Z" fill="black"/>
</svg>
