<svg width="64" height="53" viewBox="0 0 64 53" fill="none" xmlns="http://www.w3.org/2000/svg">
<path fill-rule="evenodd" clip-rule="evenodd" d="M60 4V38.011H4V4H60ZM60 0H4C2.94019 0.0034277 1.92476 0.42595 1.17535 1.17535C0.42595 1.92476 0.0034277 2.94019 0 4V38.011C0.00316545 39.0709 0.425588 40.0865 1.17505 40.8359C1.92451 41.5854 2.94011 42.0078 4 42.011H60C61.0599 42.0078 62.0755 41.5854 62.825 40.8359C63.5744 40.0865 63.9968 39.0709 64 38.011V4C63.9968 2.94011 63.5744 1.92451 62.825 1.17505C62.0755 0.425588 61.0599 0.00316545 60 0V0ZM34 40.024V48.024H44C44.5304 48.024 45.0391 48.2347 45.4142 48.6098C45.7893 48.9849 46 49.4936 46 50.024C46 50.5544 45.7893 51.0631 45.4142 51.4382C45.0391 51.8132 44.5304 52.024 44 52.024H20C19.4696 52.024 18.9609 51.8132 18.5858 51.4382C18.2107 51.0631 18 50.5544 18 50.024C18 49.4936 18.2107 48.9849 18.5858 48.6098C18.9609 48.2347 19.4696 48.024 20 48.024H30V40.024H34Z" fill="black"/>
</svg>
